<?xml version="1.0" standalone="no"?>
<!DOCTYPE svg PUBLIC "-//W3C//DTD SVG 20010904//EN"
 "http://www.w3.org/TR/2001/REC-SVG-20010904/DTD/svg10.dtd">
<svg version="1.0" xmlns="http://www.w3.org/2000/svg"
 width="238.000000pt" height="212.000000pt" viewBox="0 0 238.000000 212.000000"
 preserveAspectRatio="xMidYMid meet">

<g transform="translate(0.000000,212.000000) scale(0.100000,-0.100000)"
fill="#9b4f97" stroke="none">
<path d="M1130 1972 c-150 -78 -692 -401 -718 -428 l-32 -34 0 -446 c0 -407 2
-449 17 -476 14 -22 110 -83 383 -241 344 -200 368 -212 415 -211 47 0 74 14
400 203 193 112 364 216 380 232 l30 29 3 454 3 454 -26 30 c-13 16 -109 78
-212 138 -104 59 -269 154 -367 211 -192 110 -214 117 -276 85z m230 -399 c85
-23 167 -72 236 -139 54 -53 103 -121 92 -128 -2 -1 -52 -31 -112 -66 -96 -55
-110 -61 -118 -46 -24 42 -74 87 -123 112 -98 47 -210 32 -292 -39 -125 -111
-126 -299 -1 -413 54 -50 104 -68 184 -68 68 0 152 34 193 78 l23 24 101 -62
c55 -34 102 -66 104 -72 5 -15 -78 -98 -140 -139 -87 -57 -149 -77 -264 -83
-84 -4 -113 -1 -170 16 -237 73 -389 276 -387 517 2 142 45 250 145 359 134
146 333 203 529 149z m300 -428 c0 -22 4 -25 34 -25 28 0 35 4 38 23 2 16 11
23 31 25 23 3 27 0 27 -22 0 -21 5 -26 25 -26 21 0 25 -5 25 -30 0 -25 -4 -30
-25 -30 -22 0 -25 -4 -25 -35 0 -31 3 -35 25 -35 21 0 25 -5 25 -30 0 -25 -4
-30 -25 -30 -20 0 -25 -5 -25 -25 0 -21 -5 -25 -30 -25 -25 0 -30 4 -30 25 0
22 -4 25 -35 25 -31 0 -35 -3 -35 -25 0 -21 -5 -25 -30 -25 -25 0 -30 4 -30
25 0 18 -5 25 -20 25 -16 0 -20 7 -20 30 0 23 4 30 20 30 16 0 20 7 20 35 0
28 -4 35 -20 35 -16 0 -20 7 -20 30 0 23 4 30 20 30 13 0 20 7 20 18 0 25 9
32 37 32 18 0 23 -5 23 -25z"/>
<path d="M1660 1025 c0 -33 2 -35 35 -35 33 0 35 2 35 35 0 33 -2 35 -35 35
-33 0 -35 -2 -35 -35z"/>
</g>
</svg>
